# xmcd
#
# Track frame offsets:
# 150
# 16510
# 31911
# 48661
# 66982
# 84444
# 102204
# 118692
# 135079
# 152045
# 172012
# 193594
# 212621
# 228666
# 243697
# 260097
#
# Disc length: 3691 seconds
#
#
# Revision: 0
# Processed by: cddbd v1.5.2PL0 Copyright (c) Steve Scherf et al.
# Submitted via: FreeRIP 2.945 
#
DISCID=d70e6910
DTITLE=Jothi and Sujatha - Jothi Sujatha Duet
DYEAR=1900
DGENRE=Other
TTITLE0=Mage Anda Dase
TTITLE1=Pem Pem Pem
TTITLE2=Ge Pura Pa Naga Yana Puthe
TTITLE3=Premaya Pradipe
TTITLE4=Preme One Do
TTITLE5=Haro Hara
TTITLE6=Doi Doi Doiya Mage Puthe
TTITLE7=Sinasune Moko Aye
TTITLE8=Lo Sama Kere
TTITLE9=Kawada Kata Pudana
TTITLE10=Onchili Chili Chilla Male
TTITLE11=Nayane Nura Galana
TTITLE12=Me Ranga Madale
TTITLE13=Akase Nila Walawo
TTITLE14=Mage Kandule
TTITLE15=Awi Awi kiya
EXTD=
EXTT0=
EXTT1=
EXTT2=
EXTT3=
EXTT4=
EXTT5=
EXTT6=
EXTT7=
EXTT8=
EXTT9=
EXTT10=
EXTT11=
EXTT12=
EXTT13=
EXTT14=
EXTT15=
PLAYORDER=
